<svg version="1.1" xmlns="http://www.w3.org/2000/svg" xmlns:xlink="http://www.w3.org/1999/xlink" width="508.931640625" height="548"><defs/><g><g transform="translate(2,-94) scale(1,1)"><path fill="#C0C0C0" stroke="none" d="M 145.785400390625 129 C 145.785400390625 119.0588736 153.844273990625 111 163.785400390625 111 C 173.726526790625 111 181.785400390625 119.0588736 181.785400390625 129 C 181.785400390625 138.9411264 173.726526790625 147 163.785400390625 147 C 153.844273990625 147 145.785400390625 138.9411264 145.785400390625 129 Z" opacity="0.2"/></g><g transform="translate(2,-94) scale(1,1)"><path fill="#ffffff" stroke="none" d="M 138.785400390625 122 C 138.785400390625 112.0588736 146.844273990625 104 156.785400390625 104 C 166.726526790625 104 174.785400390625 112.0588736 174.785400390625 122 C 174.785400390625 131.9411264 166.726526790625 140 156.785400390625 140 C 146.844273990625 140 138.785400390625 131.9411264 138.785400390625 122 Z"/></g><g transform="translate(2,-94) scale(1,1)"><path fill="none" stroke="#000000" d="M 138.785400390625 122 C 138.785400390625 112.0588736 146.844273990625 104 156.785400390625 104 C 166.726526790625 104 174.785400390625 112.0588736 174.785400390625 122 C 174.785400390625 131.9411264 166.726526790625 140 156.785400390625 140 C 146.844273990625 140 138.785400390625 131.9411264 138.785400390625 122 Z" stroke-miterlimit="10"/></g><g transform="translate(2,-94) scale(1,1)"><path fill="none" stroke="#000000" d="M 112 165 L 201.57080078125 165" stroke-miterlimit="10"/></g><g transform="translate(2,-94) scale(1,1)"><path fill="none" stroke="#000000" d="M 112 175 L 201.57080078125 175" stroke-miterlimit="10"/></g><g transform="translate(2,-94) scale(1,1)"><g><path fill="none" stroke="none"/><text fill="#000000" stroke="none" font-family="Arial" font-size="13px" font-style="normal" font-weight="bold" text-decoration="none" x="123.180908203125" y="159.5">Component</text></g></g><g transform="translate(2,-94) scale(1,1)"><g><path fill="none" stroke="none"/><text fill="#000000" stroke="none" font-family="Arial" font-size="13px" font-style="normal" font-weight="normal" text-decoration="none" x="117" y="192.5">+operation()</text></g></g><g transform="translate(2,-94) scale(1,1)"><rect fill="#C0C0C0" stroke="none" x="15" y="335" width="112.2890625" height="71" opacity="0.2"/></g><g transform="translate(2,-94) scale(1,1)"><rect fill="#ffffff" stroke="none" x="8" y="328" width="112.2890625" height="71"/></g><g transform="translate(2,-94) scale(1,1)"><path fill="none" stroke="#000000" d="M 8 328 L 120.2890625 328 L 120.2890625 399 L 8 399 L 8 328 Z Z" stroke-miterlimit="10"/></g><g transform="translate(2,-94) scale(1,1)"><path fill="none" stroke="#000000" d="M 8 353 L 120.2890625 353" stroke-miterlimit="10"/></g><g transform="translate(2,-94) scale(1,1)"><path fill="none" stroke="#000000" d="M 8 363 L 120.2890625 363" stroke-miterlimit="10"/></g><g transform="translate(2,-94) scale(1,1)"><g><path fill="none" stroke="none"/><text fill="#000000" stroke="none" font-family="Arial" font-size="13px" font-style="normal" font-weight="bold" text-decoration="none" x="15.724609375" y="347.5">BaseComponent</text></g></g><g transform="translate(2,-94) scale(1,1)"><g><path fill="none" stroke="none"/><text fill="#000000" stroke="none" font-family="Arial" font-size="13px" font-style="normal" font-weight="normal" text-decoration="none" x="13" y="380.5">+operation()</text></g></g><g transform="translate(2,-94) scale(1,1)"><path fill="none" stroke="#000000" d="M 80 327 L 151.0909090909091 140" stroke-miterlimit="10"/></g><g transform="translate(2,-94) scale(1,1)"><rect fill="#C0C0C0" stroke="none" x="191" y="335" width="163.2607421875" height="85" opacity="0.2"/></g><g transform="translate(2,-94) scale(1,1)"><rect fill="#ffffff" stroke="none" x="184" y="328" width="163.2607421875" height="85"/></g><g transform="translate(2,-94) scale(1,1)"><path fill="none" stroke="#000000" d="M 184 328 L 347.2607421875 328 L 347.2607421875 413 L 184 413 L 184 328 Z Z" stroke-miterlimit="10"/></g><g transform="translate(2,-94) scale(1,1)"><path fill="none" stroke="#000000" d="M 184 353 L 347.2607421875 353" stroke-miterlimit="10"/></g><g transform="translate(2,-94) scale(1,1)"><path fill="none" stroke="#000000" d="M 184 376 L 347.2607421875 376" stroke-miterlimit="10"/></g><g transform="translate(2,-94) scale(1,1)"><g><path fill="none" stroke="none"/><text fill="#000000" stroke="none" font-family="Arial" font-size="13px" font-style="normal" font-weight="bold" text-decoration="none" x="237.09130859375" y="347.5">Decorator</text></g></g><g transform="translate(2,-94) scale(1,1)"><g><path fill="none" stroke="none"/><text fill="#000000" stroke="none" font-family="Arial" font-size="13px" font-style="normal" font-weight="normal" text-decoration="none" x="189" y="370.5">-component: Component</text></g></g><g transform="translate(2,-94) scale(1,1)"><g><path fill="none" stroke="none"/><text fill="#000000" stroke="none" font-family="Arial" font-size="13px" font-style="normal" font-weight="normal" text-decoration="none" x="189" y="393.5">+Decorator(c: Component)</text></g></g><g transform="translate(2,-94) scale(1,1)"><g><path fill="none" stroke="none"/><text fill="#000000" stroke="none" font-family="Arial" font-size="13px" font-style="normal" font-weight="normal" text-decoration="none" x="189" y="408.5">+operation()</text></g></g><g transform="translate(2,-94) scale(1,1)"><path fill="none" stroke="#000000" d="M 244 327 L 161.6103896103896 140" stroke-miterlimit="10"/></g><g transform="translate(2,-94) scale(1,1)"><rect fill="#C0C0C0" stroke="none" x="95" y="471" width="177.70166015625" height="72" opacity="0.2"/></g><g transform="translate(2,-94) scale(1,1)"><rect fill="#ffffff" stroke="none" x="88" y="464" width="177.70166015625" height="72"/></g><g transform="translate(2,-94) scale(1,1)"><path fill="none" stroke="#000000" d="M 88 464 L 265.70166015625 464 L 265.70166015625 536 L 88 536 L 88 464 Z Z" stroke-miterlimit="10"/></g><g transform="translate(2,-94) scale(1,1)"><path fill="none" stroke="#000000" d="M 88 489 L 265.70166015625 489" stroke-miterlimit="10"/></g><g transform="translate(2,-94) scale(1,1)"><path fill="none" stroke="#000000" d="M 88 499 L 265.70166015625 499" stroke-miterlimit="10"/></g><g transform="translate(2,-94) scale(1,1)"><g><path fill="none" stroke="none"/><text fill="#000000" stroke="none" font-family="Arial" font-size="13px" font-style="normal" font-weight="bold" text-decoration="none" x="137.476318359375" y="483.5">XxxDecorator</text></g></g><g transform="translate(2,-94) scale(1,1)"><g><path fill="none" stroke="none"/><text fill="#000000" stroke="none" font-family="Arial" font-size="13px" font-style="normal" font-weight="normal" text-decoration="none" x="93" y="516.5">+XxxDecorator(c: Compnent)</text></g></g><g transform="translate(2,-94) scale(1,1)"><g><path fill="none" stroke="none"/><text fill="#000000" stroke="none" font-family="Arial" font-size="13px" font-style="normal" font-weight="normal" text-decoration="none" x="93" y="531.5">+operation()</text></g></g><g transform="translate(2,-94) scale(1,1)"><path fill="none" stroke="#000000" d="M 201 463 L 235 414" stroke-miterlimit="10"/></g><g transform="translate(2,-94) scale(1,1)"><path fill="#FFFFFF" stroke="none" d="M 230.32987267108643 435.4986025297398 L 235 414 L 216.49591366190734 425.8995289315339"/></g><g transform="translate(2,-94) scale(1,1)"><path fill="none" stroke="#000000" d="M 230.32987267108643 435.4986025297398 L 235 414 L 216.49591366190734 425.8995289315339 L 230.32987267108643 435.4986025297398" stroke-miterlimit="10"/></g><g transform="translate(2,-94) scale(1,1)"><rect fill="#C0C0C0" stroke="none" x="319" y="471" width="184.931640625" height="72" opacity="0.2"/></g><g transform="translate(2,-94) scale(1,1)"><rect fill="#ffffff" stroke="none" x="312" y="464" width="184.931640625" height="72"/></g><g transform="translate(2,-94) scale(1,1)"><path fill="none" stroke="#000000" d="M 312 464 L 496.931640625 464 L 496.931640625 536 L 312 536 L 312 464 Z Z" stroke-miterlimit="10"/></g><g transform="translate(2,-94) scale(1,1)"><path fill="none" stroke="#000000" d="M 312 489 L 496.931640625 489" stroke-miterlimit="10"/></g><g transform="translate(2,-94) scale(1,1)"><path fill="none" stroke="#000000" d="M 312 499 L 496.931640625 499" stroke-miterlimit="10"/></g><g transform="translate(2,-94) scale(1,1)"><g><path fill="none" stroke="none"/><text fill="#000000" stroke="none" font-family="Arial" font-size="13px" font-style="normal" font-weight="bold" text-decoration="none" x="365.09130859375" y="483.5">YyyDecorator</text></g></g><g transform="translate(2,-94) scale(1,1)"><g><path fill="none" stroke="none"/><text fill="#000000" stroke="none" font-family="Arial" font-size="13px" font-style="normal" font-weight="normal" text-decoration="none" x="317" y="516.5">+YyyDecorator(c: Component)</text></g></g><g transform="translate(2,-94) scale(1,1)"><g><path fill="none" stroke="none"/><text fill="#000000" stroke="none" font-family="Arial" font-size="13px" font-style="normal" font-weight="normal" text-decoration="none" x="317" y="531.5">+operation()</text></g></g><g transform="translate(2,-94) scale(1,1)"><path fill="none" stroke="#000000" d="M 364 463 L 312 414" stroke-miterlimit="10"/></g><g transform="translate(2,-94) scale(1,1)"><path fill="#FFFFFF" stroke="none" d="M 332.56634957714164 421.8118669388826 L 312 414 L 321.01878116403907 434.06642933646077"/></g><g transform="translate(2,-94) scale(1,1)"><path fill="none" stroke="#000000" d="M 332.56634957714164 421.8118669388826 L 312 414 L 321.01878116403907 434.06642933646077 L 332.56634957714164 421.8118669388826" stroke-miterlimit="10"/></g><g transform="translate(2,-94) scale(1,1)"><path fill="none" stroke="#000000" d="M 203 151 L 488 152 L 488 368 L 348 369" stroke-miterlimit="10"/></g><g transform="translate(2,-94) scale(1,1)"><path fill="#FFFFFF" stroke="none" d="M 358.13234839867397 364.71800094256326 L 348 369 L 358.1924828325949 373.1368216914991 L 369.9994387969847 368.8428611514501"/></g><g transform="translate(2,-94) scale(1,1)"><path fill="none" stroke="#000000" d="M 358.13234839867397 364.71800094256326 L 348 369 L 358.1924828325949 373.1368216914991 L 369.9994387969847 368.8428611514501 L 358.13234839867397 364.71800094256326" stroke-miterlimit="10"/></g><g transform="translate(2,-94) scale(1,1)"><g><path fill="none" stroke="none"/><text fill="#000000" stroke="none" font-family="Arial" font-size="13px" font-style="normal" font-weight="normal" text-decoration="none" x="384.575439453125" y="355.5">-component</text></g></g><g transform="translate(2,-94) scale(1,1)"><path fill="#ffffff" stroke="none" d="M 312 240 L 453 240 L 463 250 L 463 293 L 312 293 L 312 240"/></g><g transform="translate(2,-94) scale(1,1)"><path fill="none" stroke="#000000" d="M 312 240 L 453 240 L 463 250 L 463 293 L 312 293 L 312 240 L 312 240" stroke-miterlimit="10"/></g><g transform="translate(2,-94) scale(1,1)"><path fill="none" stroke="#000000" d="M 453 240 L 453 250 L 463 250 L 453 240" stroke-miterlimit="10"/></g><g transform="translate(2,-94) scale(1,1)"><g><path fill="none" stroke="none"/><text fill="#000000" stroke="none" font-family="Arial" font-size="13px" font-style="normal" font-weight="normal" text-decoration="none" x="317" y="258">abstract class</text></g></g><g transform="translate(2,-94) scale(1,1)"><g><path fill="none" stroke="none"/><text fill="#000000" stroke="none" font-family="Arial" font-size="13px" font-style="normal" font-weight="normal" text-decoration="none" x="317" y="273">component.operation()</text></g></g><g transform="translate(2,-94) scale(1,1)"><path fill="none" stroke="#000000" d="M 355 295 L 316 327" stroke-miterlimit="10" stroke-dasharray="3"/></g><g transform="translate(2,-94) scale(1,1)"><path fill="#ffffff" stroke="none" d="M 232 584 L 372 584 L 382 594 L 382 631 L 232 631 L 232 584"/></g><g transform="translate(2,-94) scale(1,1)"><path fill="none" stroke="#000000" d="M 232 584 L 372 584 L 382 594 L 382 631 L 232 631 L 232 584 L 232 584" stroke-miterlimit="10"/></g><g transform="translate(2,-94) scale(1,1)"><path fill="none" stroke="#000000" d="M 372 584 L 372 594 L 382 594 L 372 584" stroke-miterlimit="10"/></g><g transform="translate(2,-94) scale(1,1)"><g><path fill="none" stroke="none"/><text fill="#000000" stroke="none" font-family="Arial" font-size="13px" font-style="normal" font-weight="normal" text-decoration="none" x="237" y="602">super.operation();</text></g></g><g transform="translate(2,-94) scale(1,1)"><g><path fill="none" stroke="none"/><text fill="#000000" stroke="none" font-family="Arial" font-size="13px" font-style="normal" font-weight="normal" text-decoration="none" x="237" y="617">addedBehavior();</text></g></g><g transform="translate(2,-94) scale(1,1)"><path fill="none" stroke="#000000" d="M 371 537 L 329 583" stroke-miterlimit="10" stroke-dasharray="3"/></g><g transform="translate(2,-94) scale(1,1)"><path fill="none" stroke="#000000" d="M 277 583 L 221 537" stroke-miterlimit="10" stroke-dasharray="3"/></g></g></svg>